{
	"asset":{
		"generator":"Khronos glTF Blender I/O v3.6.28",
		"version":"2.0"
	},
	"scene":0,
	"scenes":[
		{
			"name":"Scene",
			"nodes":[
				1,
				3,
				5,
				6,
				7,
				8,
				9
			]
		}
	],
	"nodes":[
		{
			"mesh":0,
			"name":"Z_Arrow_Head",
			"translation":[
				0,
				0.6876121759414673,
				0
			]
		},
		{
			"children":[
				0
			],
			"mesh":1,
			"name":"Z_Line",
			"rotation":[
				0.5000000596046448,
				-0.4999999403953552,
				-0.5,
				0.5000000596046448
			],
			"scale":[
				0.30782848596572876,
				0.9994729161262512,
				0.3078286647796631
			]
		},
		{
			"mesh":2,
			"name":"Y_Arrow_Head",
			"translation":[
				0,
				0.6876121759414673,
				0
			]
		},
		{
			"children":[
				2
			],
			"mesh":3,
			"name":"Y_Line",
			"scale":[
				0.30782848596572876,
				0.9994729161262512,
				0.3078286647796631
			]
		},
		{
			"mesh":4,
			"name":"X_Arrow_Head",
			"translation":[
				0,
				0.6876121759414673,
				0
			]
		},
		{
			"children":[
				4
			],
			"mesh":5,
			"name":"X_Line",
			"rotation":[
				0,
				0,
				-0.7071066498756409,
				0.70710688829422
			],
			"scale":[
				0.30782848596572876,
				0.9994729161262512,
				0.3078286647796631
			]
		},
		{
			"mesh":6,
			"name":"Y_Z_Move_cursor",
			"rotation":[
				0,
				0,
				-0.7071066498756409,
				0.70710688829422
			],
			"scale":[
				0.05000000074505806,
				1,
				0.05000000074505806
			],
			"translation":[
				0,
				0.14999999105930328,
				0.15000000596046448
			]
		},
		{
			"mesh":7,
			"name":"X_Y_Move_cursor",
			"rotation":[
				-0.7071068286895752,
				0,
				0,
				0.7071068286895752
			],
			"scale":[
				0.05000000074505806,
				1,
				0.05000000074505806
			],
			"translation":[
				0.15000000596046448,
				0.14999999105930328,
				0
			]
		},
		{
			"mesh":8,
			"name":"Z_X_Move_cursor",
			"scale":[
				0.05000000074505806,
				1,
				0.05000000074505806
			],
			"translation":[
				0.15000000596046448,
				0,
				0.15000000596046448
			]
		},
		{
			"mesh":9,
			"name":"Origin_Ref_Cube"
		}
	],
	"materials":[
		{
			"doubleSided":true,
			"emissiveFactor":[
				0.014443096704781055,
				0.3139883577823639,
				0.799102783203125
			],
			"name":"Z_Color",
			"pbrMetallicRoughness":{
				"baseColorFactor":[
					0.014443096704781055,
					0.3139883577823639,
					0.799102783203125,
					1
				],
				"metallicFactor":0,
				"roughnessFactor":0.5
			}
		},
		{
			"doubleSided":true,
			"emissiveFactor":[
				0.045185547322034836,
				0.7991026639938354,
				0.09305915981531143
			],
			"name":"Y_Color",
			"pbrMetallicRoughness":{
				"baseColorFactor":[
					0.045185547322034836,
					0.7991026639938354,
					0.09305915981531143,
					1
				],
				"metallicFactor":0,
				"roughnessFactor":0.5
			}
		},
		{
			"doubleSided":true,
			"emissiveFactor":[
				0.7991031408309937,
				0.05780521407723427,
				0.012983066029846668
			],
			"name":"X_Color",
			"pbrMetallicRoughness":{
				"baseColorFactor":[
					0.7991031408309937,
					0.05780521407723427,
					0.012983066029846668,
					1
				],
				"metallicFactor":0,
				"roughnessFactor":0.5
			}
		},
		{
			"doubleSided":true,
			"name":"Dual_Move_Cursor_color",
			"pbrMetallicRoughness":{
				"baseColorFactor":[
					0.14126315712928772,
					0.1412631720304489,
					0.14126330614089966,
					1
				],
				"metallicFactor":0,
				"roughnessFactor":0.5
			}
		},
		{
			"doubleSided":true,
			"emissiveFactor":[
				0.799102783203125,
				0.49693262577056885,
				0.027321036905050278
			],
			"name":"Hover_Color",
			"pbrMetallicRoughness":{
				"baseColorFactor":[
					0.799102783203125,
					0.49693262577056885,
					0.027321036905050278,
					1
				],
				"metallicFactor":0,
				"roughnessFactor":0.5
			}
		}
	],
	"meshes":[
		{
			"name":"Cylinder.007",
			"primitives":[
				{
					"attributes":{
						"POSITION":0,
						"NORMAL":1,
						"TEXCOORD_0":2
					},
					"indices":3,
					"material":0
				}
			]
		},
		{
			"name":"Cylinder.006",
			"primitives":[
				{
					"attributes":{
						"POSITION":4,
						"NORMAL":5,
						"TEXCOORD_0":6
					},
					"indices":7,
					"material":0
				}
			]
		},
		{
			"name":"Cylinder.003",
			"primitives":[
				{
					"attributes":{
						"POSITION":8,
						"NORMAL":9,
						"TEXCOORD_0":10
					},
					"indices":3,
					"material":1
				}
			]
		},
		{
			"name":"Cylinder",
			"primitives":[
				{
					"attributes":{
						"POSITION":11,
						"NORMAL":12,
						"TEXCOORD_0":13
					},
					"indices":7,
					"material":1
				}
			]
		},
		{
			"name":"Cylinder.005",
			"primitives":[
				{
					"attributes":{
						"POSITION":14,
						"NORMAL":15,
						"TEXCOORD_0":16
					},
					"indices":3,
					"material":2
				}
			]
		},
		{
			"name":"Cylinder.004",
			"primitives":[
				{
					"attributes":{
						"POSITION":17,
						"NORMAL":18,
						"TEXCOORD_0":19
					},
					"indices":7,
					"material":2
				}
			]
		},
		{
			"name":"Circle.003",
			"primitives":[
				{
					"attributes":{
						"POSITION":20,
						"NORMAL":21,
						"TEXCOORD_0":22
					},
					"indices":23,
					"material":3
				}
			]
		},
		{
			"name":"Circle.002",
			"primitives":[
				{
					"attributes":{
						"POSITION":24,
						"NORMAL":25,
						"TEXCOORD_0":26
					},
					"indices":23,
					"material":3
				}
			]
		},
		{
			"name":"Circle.001",
			"primitives":[
				{
					"attributes":{
						"POSITION":27,
						"NORMAL":28,
						"TEXCOORD_0":29
					},
					"indices":23,
					"material":3
				}
			]
		},
		{
			"name":"Cube.001",
			"primitives":[
				{
					"attributes":{
						"POSITION":30,
						"NORMAL":31,
						"TEXCOORD_0":32
					},
					"indices":33,
					"material":4
				}
			]
		}
	],
	"accessors":[
		{
			"bufferView":0,
			"componentType":5126,
			"count":33,
			"max":[
				0.10557830333709717,
				0.06279436498880386,
				0.10557820647954941
			],
			"min":[
				-0.1055782288312912,
				-0.001962324371561408,
				-0.10557820647954941
			],
			"type":"VEC3"
		},
		{
			"bufferView":1,
			"componentType":5126,
			"count":33,
			"type":"VEC3"
		},
		{
			"bufferView":2,
			"componentType":5126,
			"count":33,
			"type":"VEC2"
		},
		{
			"bufferView":3,
			"componentType":5123,
			"count":186,
			"type":"SCALAR"
		},
		{
			"bufferView":4,
			"componentType":5126,
			"count":66,
			"max":[
				0.016605377197265625,
				0.6856499314308167,
				0.016605377197265625
			],
			"min":[
				-0.016605384647846222,
				1.1106772944913246e-05,
				-0.016605384647846222
			],
			"type":"VEC3"
		},
		{
			"bufferView":5,
			"componentType":5126,
			"count":66,
			"type":"VEC3"
		},
		{
			"bufferView":6,
			"componentType":5126,
			"count":66,
			"type":"VEC2"
		},
		{
			"bufferView":7,
			"componentType":5123,
			"count":372,
			"type":"SCALAR"
		},
		{
			"bufferView":8,
			"componentType":5126,
			"count":33,
			"max":[
				0.10557830333709717,
				0.06279436498880386,
				0.10557820647954941
			],
			"min":[
				-0.1055782288312912,
				-0.001962324371561408,
				-0.10557820647954941
			],
			"type":"VEC3"
		},
		{
			"bufferView":9,
			"componentType":5126,
			"count":33,
			"type":"VEC3"
		},
		{
			"bufferView":10,
			"componentType":5126,
			"count":33,
			"type":"VEC2"
		},
		{
			"bufferView":11,
			"componentType":5126,
			"count":66,
			"max":[
				0.016605377197265625,
				0.6856499314308167,
				0.016605377197265625
			],
			"min":[
				-0.016605384647846222,
				1.1106772944913246e-05,
				-0.016605384647846222
			],
			"type":"VEC3"
		},
		{
			"bufferView":12,
			"componentType":5126,
			"count":66,
			"type":"VEC3"
		},
		{
			"bufferView":13,
			"componentType":5126,
			"count":66,
			"type":"VEC2"
		},
		{
			"bufferView":14,
			"componentType":5126,
			"count":33,
			"max":[
				0.10557830333709717,
				0.06279436498880386,
				0.10557820647954941
			],
			"min":[
				-0.1055782288312912,
				-0.001962324371561408,
				-0.10557820647954941
			],
			"type":"VEC3"
		},
		{
			"bufferView":15,
			"componentType":5126,
			"count":33,
			"type":"VEC3"
		},
		{
			"bufferView":16,
			"componentType":5126,
			"count":33,
			"type":"VEC2"
		},
		{
			"bufferView":17,
			"componentType":5126,
			"count":66,
			"max":[
				0.016605377197265625,
				0.6856499314308167,
				0.016605377197265625
			],
			"min":[
				-0.016605384647846222,
				1.1106772944913246e-05,
				-0.016605384647846222
			],
			"type":"VEC3"
		},
		{
			"bufferView":18,
			"componentType":5126,
			"count":66,
			"type":"VEC3"
		},
		{
			"bufferView":19,
			"componentType":5126,
			"count":66,
			"type":"VEC2"
		},
		{
			"bufferView":20,
			"componentType":5126,
			"count":32,
			"max":[
				1,
				0,
				1
			],
			"min":[
				-1,
				0,
				-1
			],
			"type":"VEC3"
		},
		{
			"bufferView":21,
			"componentType":5126,
			"count":32,
			"type":"VEC3"
		},
		{
			"bufferView":22,
			"componentType":5126,
			"count":32,
			"type":"VEC2"
		},
		{
			"bufferView":23,
			"componentType":5123,
			"count":90,
			"type":"SCALAR"
		},
		{
			"bufferView":24,
			"componentType":5126,
			"count":32,
			"max":[
				1,
				0,
				1
			],
			"min":[
				-1,
				0,
				-1
			],
			"type":"VEC3"
		},
		{
			"bufferView":25,
			"componentType":5126,
			"count":32,
			"type":"VEC3"
		},
		{
			"bufferView":26,
			"componentType":5126,
			"count":32,
			"type":"VEC2"
		},
		{
			"bufferView":27,
			"componentType":5126,
			"count":32,
			"max":[
				1,
				0,
				1
			],
			"min":[
				-1,
				0,
				-1
			],
			"type":"VEC3"
		},
		{
			"bufferView":28,
			"componentType":5126,
			"count":32,
			"type":"VEC3"
		},
		{
			"bufferView":29,
			"componentType":5126,
			"count":32,
			"type":"VEC2"
		},
		{
			"bufferView":30,
			"componentType":5126,
			"count":24,
			"max":[
				0.006000000983476639,
				0.006000000983476639,
				0.006000000983476639
			],
			"min":[
				-0.006000000983476639,
				-0.006000000983476639,
				-0.006000000983476639
			],
			"type":"VEC3"
		},
		{
			"bufferView":31,
			"componentType":5126,
			"count":24,
			"type":"VEC3"
		},
		{
			"bufferView":32,
			"componentType":5126,
			"count":24,
			"type":"VEC2"
		},
		{
			"bufferView":33,
			"componentType":5123,
			"count":36,
			"type":"SCALAR"
		}
	],
	"bufferViews":[
		{
			"buffer":0,
			"byteLength":396,
			"byteOffset":0,
			"target":34962
		},
		{
			"buffer":0,
			"byteLength":396,
			"byteOffset":396,
			"target":34962
		},
		{
			"buffer":0,
			"byteLength":264,
			"byteOffset":792,
			"target":34962
		},
		{
			"buffer":0,
			"byteLength":372,
			"byteOffset":1056,
			"target":34963
		},
		{
			"buffer":0,
			"byteLength":792,
			"byteOffset":1428,
			"target":34962
		},
		{
			"buffer":0,
			"byteLength":792,
			"byteOffset":2220,
			"target":34962
		},
		{
			"buffer":0,
			"byteLength":528,
			"byteOffset":3012,
			"target":34962
		},
		{
			"buffer":0,
			"byteLength":744,
			"byteOffset":3540,
			"target":34963
		},
		{
			"buffer":0,
			"byteLength":396,
			"byteOffset":4284,
			"target":34962
		},
		{
			"buffer":0,
			"byteLength":396,
			"byteOffset":4680,
			"target":34962
		},
		{
			"buffer":0,
			"byteLength":264,
			"byteOffset":5076,
			"target":34962
		},
		{
			"buffer":0,
			"byteLength":792,
			"byteOffset":5340,
			"target":34962
		},
		{
			"buffer":0,
			"byteLength":792,
			"byteOffset":6132,
			"target":34962
		},
		{
			"buffer":0,
			"byteLength":528,
			"byteOffset":6924,
			"target":34962
		},
		{
			"buffer":0,
			"byteLength":396,
			"byteOffset":7452,
			"target":34962
		},
		{
			"buffer":0,
			"byteLength":396,
			"byteOffset":7848,
			"target":34962
		},
		{
			"buffer":0,
			"byteLength":264,
			"byteOffset":8244,
			"target":34962
		},
		{
			"buffer":0,
			"byteLength":792,
			"byteOffset":8508,
			"target":34962
		},
		{
			"buffer":0,
			"byteLength":792,
			"byteOffset":9300,
			"target":34962
		},
		{
			"buffer":0,
			"byteLength":528,
			"byteOffset":10092,
			"target":34962
		},
		{
			"buffer":0,
			"byteLength":384,
			"byteOffset":10620,
			"target":34962
		},
		{
			"buffer":0,
			"byteLength":384,
			"byteOffset":11004,
			"target":34962
		},
		{
			"buffer":0,
			"byteLength":256,
			"byteOffset":11388,
			"target":34962
		},
		{
			"buffer":0,
			"byteLength":180,
			"byteOffset":11644,
			"target":34963
		},
		{
			"buffer":0,
			"byteLength":384,
			"byteOffset":11824,
			"target":34962
		},
		{
			"buffer":0,
			"byteLength":384,
			"byteOffset":12208,
			"target":34962
		},
		{
			"buffer":0,
			"byteLength":256,
			"byteOffset":12592,
			"target":34962
		},
		{
			"buffer":0,
			"byteLength":384,
			"byteOffset":12848,
			"target":34962
		},
		{
			"buffer":0,
			"byteLength":384,
			"byteOffset":13232,
			"target":34962
		},
		{
			"buffer":0,
			"byteLength":256,
			"byteOffset":13616,
			"target":34962
		},
		{
			"buffer":0,
			"byteLength":288,
			"byteOffset":13872,
			"target":34962
		},
		{
			"buffer":0,
			"byteLength":288,
			"byteOffset":14160,
			"target":34962
		},
		{
			"buffer":0,
			"byteLength":192,
			"byteOffset":14448,
			"target":34962
		},
		{
			"buffer":0,
			"byteLength":72,
			"byteOffset":14640,
			"target":34963
		}
	],
	"buffers":[
		{
			"byteLength":14712,
			"uri":"data:application/octet-stream;base64,"
		}
	]
}
